<?xml version="1.0" standalone="no"?>
<!DOCTYPE svg PUBLIC "-//W3C//DTD SVG 20010904//EN"
 "http://www.w3.org/TR/2001/REC-SVG-20010904/DTD/svg10.dtd">
<svg version="1.0" xmlns="http://www.w3.org/2000/svg"
 width="120.000000pt" height="120.000000pt" viewBox="0 0 120.000000 120.000000"
 preserveAspectRatio="xMidYMid meet">
<metadata>
Created by potrace 1.13, written by Peter Selinger 2001-2015
</metadata>
<g transform="translate(0.000000,120.000000) scale(0.100000,-0.100000)"
fill="#000000" stroke="none">
<path d="M203 1186 c-83 -20 -138 -66 -177 -146 -20 -44 -21 -57 -21 -440 0
-382 1 -396 21 -440 23 -49 73 -104 113 -125 58 -29 137 -35 461 -35 324 0
403 6 461 35 40 21 90 76 113 125 20 44 21 58 21 440 0 382 -1 396 -21 440
-23 49 -73 104 -113 125 -59 29 -136 35 -469 34 -234 0 -353 -5 -389 -13z
m762 -301 l25 -24 0 -259 c0 -241 -1 -262 -19 -283 l-19 -24 -352 0 -352 0
-24 28 c-24 28 -24 28 -24 278 l0 251 29 29 29 29 342 0 341 0 24 -25z"/>
<path d="M257 868 c-16 -12 -17 -37 -15 -273 l3 -260 344 -3 c245 -2 348 1
357 9 11 9 14 62 14 260 0 212 -2 250 -16 263 -13 14 -59 16 -343 16 -246 0
-331 -3 -344 -12z m641 -116 l3 -62 -303 2 -303 3 -3 49 c-5 82 -28 77 305 74
l298 -3 3 -63z m2 -127 c0 -13 -38 -15 -302 -13 -230 2 -302 6 -306 16 -3 9
62 12 302 12 267 0 306 -2 306 -15z m-2 -87 c3 -17 -16 -18 -297 -18 -189 0
-302 4 -306 10 -17 27 15 30 303 28 273 -3 297 -4 300 -20z"/>
</g>
</svg>
