<?xml version="1.0" standalone="no"?>
<!DOCTYPE svg PUBLIC "-//W3C//DTD SVG 20010904//EN"
 "http://www.w3.org/TR/2001/REC-SVG-20010904/DTD/svg10.dtd">
<svg version="1.0" xmlns="http://www.w3.org/2000/svg"
 width="600.000000pt" height="494.000000pt" viewBox="0 0 600.000000 494.000000"
 preserveAspectRatio="xMidYMid meet">
<metadata>
Created by potrace 1.13, written by Peter Selinger 2001-2015
</metadata>
<g transform="translate(0.000000,494.000000) scale(0.100000,-0.100000)"
fill="#000000" stroke="none">
<path d="M3420 4850 c-289 -44 -633 -95 -764 -115 -132 -20 -267 -45 -300 -56
-133 -44 -294 -136 -410 -233 -45 -37 -276 -321 -276 -338 0 -4 8 -12 19 -17
16 -9 32 6 119 118 108 137 180 208 274 272 79 54 249 135 323 154 67 18 1194
180 1343 194 119 11 207 0 236 -29 19 -19 20 -22 6 -48 -20 -35 -115 -86 -210
-111 -41 -11 -284 -54 -540 -96 -698 -112 -706 -114 -772 -136 -79 -26 -124
-49 -223 -114 -112 -72 -143 -101 -256 -243 l-100 -124 203 -198 c161 -156
201 -200 192 -211 -6 -8 -379 -481 -828 -1053 -450 -571 -829 -1055 -842
-1075 -13 -20 -43 -57 -66 -82 l-43 -47 -30 21 c-82 56 62 -59 778 -617 427
-334 801 -619 830 -634 47 -25 62 -27 162 -27 104 0 114 2 176 32 39 20 84 52
110 80 24 27 442 558 929 1180 657 841 897 1155 932 1220 82 153 138 360 138
512 0 56 -12 195 -44 514 -3 26 -2 47 2 47 4 0 68 -9 142 -21 272 -41 620 -36
845 11 334 70 500 206 510 418 3 44 1 64 -3 47 -4 -16 -14 -31 -22 -33 -8 -1
-40 18 -70 44 -292 244 -750 383 -1352 410 -82 4 -148 10 -148 14 0 6 -70 10
-145 8 -91 -3 -113 -1 -142 11 -18 7 -33 17 -33 22 0 15 37 10 50 -6 7 -8 17
-15 23 -15 5 0 -2 9 -16 20 -14 11 -32 20 -40 20 -22 0 -14 30 12 52 27 21 45
24 36 6 -4 -7 0 -6 7 4 10 11 19 13 31 7 14 -8 15 -6 10 8 -6 16 -5 16 10 4
13 -10 17 -10 17 -1 0 7 6 10 14 7 8 -3 17 -3 20 1 4 3 19 7 34 9 84 9 93 13
86 36 -27 91 -109 182 -202 225 -98 44 -151 41 -742 -48z m1340 -450 c326 -29
653 -121 836 -235 73 -46 164 -133 164 -159 0 -19 -61 -71 -118 -100 -61 -31
-165 -62 -267 -80 -44 -8 -73 -15 -65 -16 70 -7 83 -19 75 -65 -11 -64 -96
-111 -241 -135 -164 -27 -643 8 -668 49 -3 4 -10 62 -16 127 -29 306 -50 533
-56 577 l-6 47 124 0 c67 0 175 -5 238 -10z m-1132 -62 c-32 -66 -36 -188 -8
-261 28 -74 86 -147 163 -203 34 -25 64 -48 66 -50 6 -6 -40 -42 -79 -63 -158
-85 -364 -18 -448 144 -36 71 -42 188 -13 266 47 124 162 207 288 209 l51 0
-20 -42z m297 -168 c34 -98 29 -209 -13 -260 l-17 -22 -35 49 c-33 45 -35 53
-37 133 -2 100 9 159 34 177 15 12 20 10 35 -9 10 -13 24 -43 33 -68z"/>
</g>
</svg>
