<?xml version="1.0" standalone="no"?>
<!DOCTYPE svg PUBLIC "-//W3C//DTD SVG 20010904//EN"
 "http://www.w3.org/TR/2001/REC-SVG-20010904/DTD/svg10.dtd">
<svg version="1.0" xmlns="http://www.w3.org/2000/svg"
 width="300.000000pt" height="229.000000pt" viewBox="0 0 300.000000 229.000000"
 preserveAspectRatio="xMidYMid meet">
<metadata>
Created by potrace 1.12, written by Peter Selinger 2001-2015
</metadata>
<g transform="translate(0.000000,229.000000) scale(0.100000,-0.100000)"
fill="#000000" stroke="none">
<path d="M1282 2184 c-151 -10 -200 -17 -225 -31 -51 -29 -75 -91 -87 -221
-11 -115 -28 -179 -52 -186 -7 -3 -32 -7 -55 -10 -42 -6 -43 -6 -43 24 0 20
-6 33 -17 37 -10 4 -30 15 -44 25 -22 17 -41 19 -160 16 -159 -4 -240 -28
-249 -72 -4 -18 -20 -33 -60 -53 -38 -20 -65 -43 -86 -75 l-31 -45 -6 -189
c-13 -359 -9 -543 12 -627 25 -94 40 -124 87 -170 48 -47 92 -61 157 -53 79
11 113 30 136 75 12 22 21 42 21 44 0 3 -14 10 -30 17 -22 9 -56 11 -115 6
-137 -11 -193 28 -175 124 13 67 12 153 -6 384 -21 263 -13 340 38 393 82 85
186 107 463 97 200 -7 246 -1 259 33 3 8 11 56 16 106 14 128 27 187 49 224
19 31 20 31 133 38 62 4 217 5 343 3 226 -3 231 -4 280 -29 28 -15 57 -35 66
-45 8 -11 30 -84 48 -164 18 -80 37 -149 42 -155 6 -6 107 -10 262 -10 278 0
321 -7 407 -64 77 -51 86 -75 81 -221 -9 -284 -7 -299 28 -281 34 19 59 74 75
166 35 207 -44 388 -187 430 -45 13 -98 15 -283 13 -255 -3 -270 0 -311 61
-17 24 -23 48 -23 86 0 79 -26 151 -72 201 -101 110 -235 129 -686 98z"/>
<path d="M1411 1560 c-35 -5 -84 -16 -109 -24 -146 -50 -278 -204 -313 -366
-6 -29 -9 -97 -7 -150 3 -91 7 -104 46 -183 75 -151 177 -237 323 -272 207
-48 452 37 562 196 58 85 97 207 97 307 0 134 -43 236 -144 340 -123 127 -273
177 -455 152z m242 -115 c150 -74 244 -249 235 -439 -8 -177 -91 -276 -283
-341 -150 -51 -276 -25 -381 80 -159 158 -177 440 -38 594 55 62 88 82 184
116 101 35 198 31 283 -10z"/>
<path d="M1210 1065 l0 -255 80 0 79 0 3 103 3 102 69 6 c60 5 73 10 94 34 22
26 24 35 20 116 -5 133 -29 148 -235 149 l-113 0 0 -255z"/>
<path d="M1616 1137 c-14 -15 -26 -38 -26 -52 0 -23 3 -25 49 -25 44 0 50 3
53 22 4 30 34 35 43 9 10 -34 -4 -61 -36 -68 -38 -7 -41 -43 -4 -43 31 0 49
-39 40 -88 -4 -24 -11 -32 -23 -30 -12 2 -18 15 -20 46 l-3 42 -50 0 -49 0 0
-36 c0 -48 15 -73 55 -90 44 -18 96 -18 140 0 26 11 36 23 44 54 13 46 5 102
-17 119 -14 11 -14 15 1 31 23 25 21 74 -2 103 -16 20 -30 24 -94 27 -70 4
-78 2 -101 -21z"/>
</g>
</svg>
